# xmcd
#
# Track frame offsets:
#	150
#	13857
#	28277
#	42045
#	56305
#	70080
#	84270
#	98082
#	112667
#	126515
#	139672
#	153750
#	168060
#	181127
#	196605
#	206935
#	220070
#	232652
#	245170
#	260460
#
# Disc length: 3690 seconds
#
# Revision: 1
# Processed by: cddbd v1.5.2PL0 Copyright (c) Steve Scherf et al.
# Submitted via: CDex 1.51
#
DISCID=000e6814
DTITLE=Various Artist - Slide Guitar Masters
DYEAR=1998
DGENRE=Blues
TTITLE0=Sylvester Weaver - Guitar Rag
TTITLE1=Charley Patton - A Spoonful Blues
TTITLE2=Hambone Willie Newbern - Roll and Tumble Blues
TTITLE3=Blind Willie McTell - Love Changing Blues
TTITLE4=Blind Willie Johnson - Lord, I Just Can't Keep From Crying
TTITLE5=Tampa Red - Kingfish Blues
TTITLE6=Son House - Preachin' the Blues
TTITLE7=Barbecue Bob - Goin' Up the Country
TTITLE8=Kokomo Arnold - Sagefield Woman Blues
TTITLE9=Bukka White - Special Stream Line
TTITLE10=Oscar Woods - Evil Hearted Woman Blues
TTITLE11=Casey Bill Weldon - You Just as Well Let Her Go
TTITLE12=Robert Johnson - Ramblin' on My Mind
TTITLE13=Muddy Waters - Country Blues
TTITLE14=J. B. Hutto and the Hawks - Combination Boogie
TTITLE15=Elmore James - Dust My Broom
TTITLE16=Homesick James - Crossroads
TTITLE17=Earl Hooker - Blue Guitar
TTITLE18=Louisianna Red - Had A Date With Barbara Last Night
TTITLE19=Mississippi Fred McDowell - Shake 'em on Down
EXTD=YEAR: 1998
EXTT0=
EXTT1=
EXTT2=
EXTT3=
EXTT4=
EXTT5=
EXTT6=
EXTT7=
EXTT8=
EXTT9=
EXTT10=
EXTT11=
EXTT12=
EXTT13=
EXTT14=
EXTT15=
EXTT16=
EXTT17=
EXTT18=
EXTT19=
PLAYORDER=
